<svg width="1920" height="1080" viewBox="0 0 1920 1080" xmlns="http://www.w3.org/2000/svg">
  <defs>
    <linearGradient id="teamGrad" x1="0%" y1="0%" x2="0%" y2="100%">
      <stop offset="0%" style="stop-color:#000000;stop-opacity:1" />
      <stop offset="100%" style="stop-color:#1a1a1a;stop-opacity:1" />
    </linearGradient>
  </defs>
  
  <!-- Fundo -->
  <rect width="1920" height="1080" fill="url(#teamGrad)"/>
  
  <!-- Camisas do time (representação) -->
  <g opacity="0.3">
    <!-- Linha superior -->
    <rect x="200" y="200" width="200" height="250" fill="#ffffff" opacity="0.2"/>
    <rect x="200" y="250" width="200" height="30" fill="#ffffff"/>
    <rect x="200" y="320" width="200" height="30" fill="#ffffff"/>
    <rect x="200" y="390" width="200" height="30" fill="#ffffff"/>
    
    <rect x="500" y="200" width="200" height="250" fill="#ffffff" opacity="0.2"/>
    <rect x="500" y="250" width="200" height="30" fill="#ffffff"/>
    <rect x="500" y="320" width="200" height="30" fill="#ffffff"/>
    <rect x="500" y="390" width="200" height="30" fill="#ffffff"/>
    
    <rect x="800" y="200" width="200" height="250" fill="#ffffff" opacity="0.2"/>
    <rect x="800" y="250" width="200" height="30" fill="#ffffff"/>
    <rect x="800" y="320" width="200" height="30" fill="#ffffff"/>
    <rect x="800" y="390" width="200" height="30" fill="#ffffff"/>
    
    <rect x="1100" y="200" width="200" height="250" fill="#ffffff" opacity="0.2"/>
    <rect x="1100" y="250" width="200" height="30" fill="#ffffff"/>
    <rect x="1100" y="320" width="200" height="30" fill="#ffffff"/>
    <rect x="1100" y="390" width="200" height="30" fill="#ffffff"/>
    
    <rect x="1400" y="200" width="200" height="250" fill="#ffffff" opacity="0.2"/>
    <rect x="1400" y="250" width="200" height="30" fill="#ffffff"/>
    <rect x="1400" y="320" width="200" height="30" fill="#ffffff"/>
    <rect x="1400" y="390" width="200" height="30" fill="#ffffff"/>
    
    <!-- Linha inferior -->
    <rect x="350" y="550" width="200" height="250" fill="#ffffff" opacity="0.2"/>
    <rect x="350" y="600" width="200" height="30" fill="#ffffff"/>
    <rect x="350" y="670" width="200" height="30" fill="#ffffff"/>
    <rect x="350" y="740" width="200" height="30" fill="#ffffff"/>
    
    <rect x="650" y="550" width="200" height="250" fill="#ffffff" opacity="0.2"/>
    <rect x="650" y="600" width="200" height="30" fill="#ffffff"/>
    <rect x="650" y="670" width="200" height="30" fill="#ffffff"/>
    <rect x="650" y="740" width="200" height="30" fill="#ffffff"/>
    
    <rect x="950" y="550" width="200" height="250" fill="#ffffff" opacity="0.2"/>
    <rect x="950" y="600" width="200" height="30" fill="#ffffff"/>
    <rect x="950" y="670" width="200" height="30" fill="#ffffff"/>
    <rect x="950" y="740" width="200" height="30" fill="#ffffff"/>
    
    <rect x="1250" y="550" width="200" height="250" fill="#ffffff" opacity="0.2"/>
    <rect x="1250" y="600" width="200" height="30" fill="#ffffff"/>
    <rect x="1250" y="670" width="200" height="30" fill="#ffffff"/>
    <rect x="1250" y="740" width="200" height="30" fill="#ffffff"/>
  </g>
  
  <!-- Texto -->
  <text x="960" y="950" font-family="Arial, sans-serif" font-size="100" font-weight="bold" fill="#ffffff" text-anchor="middle">ELENCO ATUAL</text>
  <text x="960" y="1020" font-family="Arial, sans-serif" font-size="60" fill="#ffffff" text-anchor="middle" opacity="0.7">Colo-Colo</text>
</svg>

